<svg xmlns="http://www.w3.org/2000/svg" viewBox="0 0 900 1200" role="img" aria-label="AI cinematic portrait preview">
  <defs>
    <linearGradient id="bg" x1="0" x2="1" y1="0" y2="1"><stop stop-color="#020617"/><stop offset=".5" stop-color="#312e81"/><stop offset="1" stop-color="#ec4899"/></linearGradient>
    <radialGradient id="light" cx=".5" cy=".2" r=".5"><stop stop-color="#fef3c7"/><stop offset="1" stop-color="#fef3c7" stop-opacity="0"/></radialGradient>
  </defs>
  <rect width="900" height="1200" fill="url(#bg)"/>
  <rect width="900" height="1200" fill="url(#light)" opacity=".72"/>
  <path d="M190 1120c26-260 118-400 260-400s234 140 260 400z" fill="#0f172a" opacity=".9"/>
  <circle cx="450" cy="405" r="158" fill="#eac2ad"/>
  <path d="M278 380c10-205 160-270 322-180 54 30 92 98 75 210-116-80-258-108-397-30z" fill="#111827"/>
  <path d="M386 494c40 30 88 30 128 0" stroke="#7f1d1d" stroke-width="14" stroke-linecap="round" fill="none"/>
  <circle cx="390" cy="400" r="17" fill="#111827"/><circle cx="510" cy="400" r="17" fill="#111827"/>
  <rect x="650" y="90" width="130" height="130" rx="65" fill="#38bdf8" opacity=".28"/>
</svg>
