<svg xmlns="http://www.w3.org/2000/svg" viewBox="0 0 900 1200" role="img" aria-label="AI fashion scene preview">
  <defs>
    <linearGradient id="bg" x1="0" x2="1" y1="0" y2="1"><stop stop-color="#151515"/><stop offset=".55" stop-color="#3b1237"/><stop offset="1" stop-color="#ff7adf"/></linearGradient>
  </defs>
  <rect width="900" height="1200" fill="url(#bg)"/>
  <path d="M0 820c180-90 335-90 465 0s280 90 435 0v380H0z" fill="#050505" opacity=".55"/>
  <circle cx="450" cy="310" r="132" fill="#f1c4b1"/>
  <path d="M310 310c28-150 166-206 280-128 44 32 66 82 58 150-100-58-206-70-338-22z" fill="#171421"/>
  <path d="M330 535l240 0 125 665H205z" fill="#d9ff31"/>
  <path d="M376 540l-70 660M524 540l70 660" stroke="#111827" stroke-width="40" opacity=".35"/>
  <rect x="86" y="86" width="200" height="54" rx="27" fill="#ff5db8"/>
  <path d="M92 1000h716" stroke="#fff" stroke-width="8" opacity=".15"/>
</svg>
